<svg xmlns="http://www.w3.org/2000/svg" viewBox="0 0 800 800">
  <defs>
    <linearGradient id="brainGradient" x1="0%" y1="0%" x2="100%" y2="100%">
      <stop offset="0%" style="stop-color:#06b6d4;stop-opacity:1" />
      <stop offset="50%" style="stop-color:#6366f1;stop-opacity:1" />
      <stop offset="100%" style="stop-color:#d946ef;stop-opacity:1" />
    </linearGradient>
  </defs>
  <path d="M180 200c-30 0-55 15-70 40-20-10-45-10-65 5-25 20-30 55-15 80-15 10-25 30-25 50 0 25 15 45 35 55-5 15-5 30 0 45 10 30 40 50 70 50 5 25 25 45 50 50 30 10 60-5 75-30 20 15 45 15 65 5 25-15 35-45 30-70 20-10 35-30 35-55 0-30-20-55-45-65 0-20-10-40-25-50-20-15-45-20-70-10-10-30-35-50-65-50zm280 0c30 0 55 15 70 40 20-10 45-10 65 5 25 20 30 55 15 80 15 10 25 30 25 50 0 25-15 45-35 55 5 15 5 30 0 45-10 30-40 50-70 50-5 25-25 45-50 50-30 10-60-5-75-30-20 15-45 15-65 5-25-15-35-45-30-70-20-10-35-30-35-55 0-30 20-55 45-65 0-20 10-40 25-50 20-15 45-20 70-10 10-30 35-50 65-50zm-140 50v400" 
        fill="none" 
        stroke="url(#brainGradient)" 
        stroke-width="12" 
        stroke-linecap="round" 
        stroke-linejoin="round"/>
  <circle cx="250" cy="320" r="25" fill="none" stroke="url(#brainGradient)" stroke-width="10"/>
  <circle cx="550" cy="320" r="25" fill="none" stroke="url(#brainGradient)" stroke-width="10"/>
  <path d="M200 450c20 40 60 70 105 75" fill="none" stroke="url(#brainGradient)" stroke-width="10" stroke-linecap="round"/>
  <path d="M600 450c-20 40-60 70-105 75" fill="none" stroke="url(#brainGradient)" stroke-width="10" stroke-linecap="round"/>
</svg>
